<svg width="130" height="130" viewBox="0 0 130 130" fill="none" xmlns="http://www.w3.org/2000/svg">
	<g filter="url(#filter0_d_530_20)">
		<path d="M62.03 16.1535C63.049 15.1611 64.5587 14.811 65.9305 15.0956C66.4284 15.1989 66.8883 15.4343 67.3028 15.7288C70.2387 17.8143 71.7844 21.5171 74.7864 23.4592C75.5576 23.9581 76.4729 24.2033 77.3901 24.154C81.1751 23.9503 84.4628 21.1756 88.3074 21.0439C89.5117 21.0439 90.6072 21.8323 91.1965 22.8514C93.0926 26.2685 92.4274 30.6362 94.2891 34.0245C94.6832 34.7419 95.2734 35.3395 95.9909 35.7334C99.1811 37.4845 103.248 36.8283 106.558 38.3687C107.384 38.8686 108.403 39.4903 108.499 40.5607C109.299 44.9082 105.824 48.6023 105.788 52.7978C105.781 53.5571 105.983 54.3088 106.367 54.9637C108.443 58.5018 113.083 59.9496 114.809 63.8078C115.642 66.1537 113.573 68.0188 112.048 69.4546C110.044 71.4542 107.048 72.8617 105.997 75.5942C105.791 76.1308 105.725 76.7116 105.763 77.2851C106.03 81.3696 109.183 84.9274 108.518 89.1572C108.499 89.9777 107.891 90.5673 107.263 90.9967C103.967 93.1857 99.5899 92.3465 96.153 94.0324C95.3509 94.4259 94.6885 95.0651 94.2621 95.8502C92.3706 99.3329 93.1361 103.859 90.9979 107.296C90.4086 108.2 89.3003 108.636 88.2562 108.661C84.4429 108.511 81.0854 105.952 77.3175 105.759C76.4652 105.715 75.6099 105.91 74.877 106.347C71.4893 108.368 69.9952 112.845 66.4203 114.597C65.8047 114.899 65.1108 115.064 64.4365 114.94C62.5071 114.586 61.0629 112.728 59.82 111.315C58.1967 109.525 56.8621 107.113 54.614 106.077C54.0444 105.815 53.412 105.719 52.7853 105.743C48.8614 105.897 45.419 108.613 41.454 108.648C38.7507 108.52 37.9243 105.508 37.5656 103.316C36.9486 100.654 36.9927 97.5379 35.3386 95.2741C35.0015 94.8127 34.561 94.434 34.0602 94.159C30.6645 92.2937 25.9515 93.2784 22.8404 91.0172C21.8978 90.3322 21.3247 89.2252 21.2858 88.0606C21.1583 84.2444 24.2971 80.738 24.2096 76.8945C24.1929 76.1627 23.9679 75.4474 23.5829 74.8248C21.4515 71.3782 16.9385 69.9159 15.2215 66.1152C14.3439 63.8335 16.2529 61.7888 17.8223 60.3852C19.8408 58.5715 22.5591 57.0572 23.8029 54.5805C24.1864 53.8169 24.2883 52.9433 24.1753 52.0962C23.7508 48.9145 21.8616 46.0287 21.3299 42.8656C21.0503 41.2024 21.6669 39.433 23.1155 38.5693C26.4426 36.5858 31.2977 37.7245 34.5268 35.3487C34.9634 35.0275 35.3263 34.6133 35.6037 34.1477C37.2521 31.3806 37.033 27.8915 37.9435 24.8447C38.3023 23.0308 39.5706 21.108 41.6078 21.0567C45.5231 21.1135 48.8957 24.0872 52.7539 24.1553C53.7655 24.1732 54.7478 23.8082 55.5501 23.1919C58.0718 21.2549 59.6356 18.2505 62.03 16.1535Z" fill="#0C8CE9"/>
		<path d="M47.0921 43.2541C47.45 43.1195 47.8409 42.8488 48.2067 43.1086C47.829 44.5244 47.487 45.9511 47.0789 47.3573C46.6273 46.9316 46.1427 46.4094 45.4824 46.4108C44.5211 46.4475 43.6389 46.9276 42.8585 47.4716C41.4151 48.5066 40.1936 49.8666 39.2957 51.4239C38.7965 52.3283 38.3502 53.3266 38.3581 54.3874C38.3528 54.9518 38.6909 55.4373 39.0963 55.7841C38.0478 56.2112 37.0019 56.6451 35.9455 57.049C35.6932 57.2203 35.4001 56.9375 35.5335 56.6668C36.3165 53.657 37.1181 50.6514 37.8985 47.6402C37.9936 47.2281 38.2128 46.8106 38.6235 46.6596C41.4455 45.524 44.2715 44.3938 47.0921 43.2541Z" fill="white"/>
		<path d="M42.2642 57.2464C42.4372 55.4852 43.1991 53.8001 44.3691 52.5081C44.7864 54.7304 46.3196 56.6766 48.3651 57.5157C48.3677 59.1763 48.3625 60.8383 48.3691 62.4989C50.3538 62.5016 52.3399 62.4962 54.3247 62.5003C55.0933 62.4826 55.8473 63.0688 55.9714 63.863C56.0757 64.5022 56.0031 65.1537 56.0229 65.7997C56.0031 66.4321 56.0969 67.085 55.9133 67.7011C55.6981 68.3824 55.0087 68.8394 54.3234 68.8299C52.3386 68.8313 50.3538 68.8258 48.3691 68.8312C48.3598 70.6755 48.3717 72.5197 48.3638 74.3639C48.3268 76.4597 47.3721 78.5229 45.7808 79.8353C44.7666 80.7017 43.5029 81.2171 42.2048 81.4089C42.2035 74.032 42.2048 66.6565 42.2035 59.2797C42.2061 58.601 42.1757 57.9197 42.2642 57.2464Z" fill="white"/>
		<path d="M42.8584 47.472C43.6388 46.928 44.5209 46.4479 45.4823 46.4111C46.1425 46.4098 46.6272 46.932 47.0788 47.3577C47.854 48.1357 48.6951 48.8402 49.4756 49.614C47.6031 49.7922 45.7701 50.5565 44.4087 51.9084C42.7157 53.5269 41.7636 55.9137 41.8495 58.2897C41.1007 57.6083 40.3731 56.9038 39.6191 56.2306C39.5095 56.1368 39.4012 56.0443 39.2929 55.9532C39.2427 55.911 39.145 55.8267 39.0961 55.7845C38.6907 55.4377 38.3527 54.9522 38.358 54.3878C38.35 53.3269 38.7964 52.3287 39.2955 51.4242C40.1935 49.867 41.415 48.507 42.8584 47.472Z" fill="white"/>
		<path d="M45.7597 51.2719C47.0828 50.3878 48.6464 49.8533 50.2323 49.8928C53.0041 49.7309 55.8209 50.5102 58.1226 52.1124C60.8864 53.996 62.895 57.0194 63.5698 60.3637C63.8431 61.5633 63.8709 62.8009 63.8577 64.0277C63.8603 67.7311 63.8458 71.4344 63.8643 75.1392C65.5295 75.1242 67.1947 75.131 68.8612 75.1378C69.1662 75.1378 69.5083 75.1106 69.7314 74.8658C69.9744 74.6387 69.9533 74.2701 69.9718 73.9614C69.9638 68.4288 69.9678 62.8961 69.9704 57.3635C69.952 57.0289 69.9639 56.6182 69.668 56.4019C69.4013 56.1802 69.0381 56.202 68.7173 56.1938C67.4007 56.2061 66.0828 56.1979 64.7662 56.2061C64.4678 56.1802 64.0967 56.2374 63.8828 55.9762C63.5896 55.6321 63.3757 55.2282 63.1076 54.8664C61.7831 53.0372 60.0241 51.5439 58.0169 50.5755C57.5204 50.3429 57.008 50.1485 56.5128 49.9159C57.3236 49.8601 58.1358 49.8751 58.9479 49.8928C62.3813 49.886 65.8147 49.8669 69.2468 49.8887C71.4257 49.8873 73.5557 51.0502 74.8142 52.8753C75.5431 53.9063 75.9829 55.1439 76.0912 56.4142C76.2615 55.5832 76.416 54.7359 76.7871 53.9702C77.8356 51.6907 80.1188 50.0369 82.5776 49.9105C83.815 49.8805 85.051 49.8737 86.2884 49.8805C87.3501 49.886 88.4369 49.8248 89.4643 50.1539C91.6828 50.7999 93.5553 52.6441 94.2063 54.9304C94.3674 55.3982 94.1284 55.9613 93.6755 56.1354C93.2437 56.2387 92.796 56.1979 92.3589 56.2047C89.3665 56.1938 86.3742 56.2102 83.3832 56.1952C83.0742 56.1993 82.7216 56.2074 82.4971 56.459C82.2237 56.7283 82.2713 57.1527 82.2568 57.5063C82.2766 59.1791 82.2515 60.8506 82.2713 62.5221C83.8744 62.4595 85.4802 62.5126 87.0847 62.4867C87.4531 62.5003 87.8968 62.4636 88.1675 62.7791C88.4078 63.0376 88.3735 63.4225 88.3907 63.7516C88.3827 65.0273 88.3854 66.303 88.392 67.5787C88.3735 67.9065 88.4092 68.2941 88.1649 68.5484C87.8585 68.8939 87.362 68.8218 86.9539 68.8408C85.3944 68.815 83.8348 68.8653 82.2752 68.8082C82.2475 70.4783 82.2779 72.1498 82.2581 73.8213C82.2752 74.1749 82.2185 74.6074 82.5011 74.8726C82.7295 75.1133 83.0755 75.1378 83.3858 75.1392C86.5974 75.1215 89.8103 75.1405 93.0218 75.1269C93.3269 75.1419 93.6768 75.1242 93.9237 75.3473C94.2301 75.5948 94.3186 76.0436 94.205 76.4176C93.4008 79.188 90.8125 81.3029 87.9985 81.4253C86.6793 81.4552 85.36 81.4484 84.0408 81.4511C83.2049 81.4498 82.3584 81.4743 81.541 81.2716C79.4863 80.8038 77.6811 79.3172 76.7858 77.3574C76.4173 76.5917 76.2589 75.7471 76.0951 74.9161C75.8878 77.726 73.9017 80.2733 71.2897 81.1016C70.3838 81.4362 69.4145 81.4498 68.465 81.4471C64.8837 81.4607 61.3024 81.4457 57.7211 81.4511C57.6987 76.0096 57.7185 70.5681 57.7119 65.1266C57.6973 63.9474 57.7977 62.7465 57.4821 61.5973C56.9394 59.3491 55.2623 57.4505 53.1547 56.6549C52.0626 56.1993 50.8411 56.2986 49.7503 55.8429C47.8039 55.1017 46.2773 53.3391 45.7597 51.2719Z" fill="white"/>
		<path d="M39.293 55.9529C39.4013 56.044 39.5096 56.1365 39.6192 56.2303C38.7991 57.1565 37.9513 58.0596 37.2211 59.0647C36.3112 60.3594 35.6483 61.9031 35.6378 63.5242C36.1739 64.0954 36.1805 64.9223 36.2875 65.6608C36.3403 66.1505 36.4776 66.651 36.3548 67.1406C36.0035 67.2616 35.6338 67.2943 35.2759 67.384C34.926 66.4034 34.9682 65.3222 35.0831 64.3022C35.3116 63.5052 35.2825 62.6647 35.4833 61.8623C36.0273 59.4849 37.7335 57.6883 39.293 55.9529Z" fill="white"/>
	</g>
	<defs>
		<filter id="filter0_d_530_20" x="0" y="0" width="130" height="129.982" filterUnits="userSpaceOnUse" color-interpolation-filters="sRGB">
			<feFlood flood-opacity="0" result="BackgroundImageFix"/>
			<feColorMatrix in="SourceAlpha" type="matrix" values="0 0 0 0 0 0 0 0 0 0 0 0 0 0 0 0 0 0 127 0" result="hardAlpha"/>
			<feOffset/>
			<feGaussianBlur stdDeviation="7.5"/>
			<feComposite in2="hardAlpha" operator="out"/>
			<feColorMatrix type="matrix" values="0 0 0 0 0 0 0 0 0 0 0 0 0 0 0 0 0 0 0.25 0"/>
			<feBlend mode="normal" in2="BackgroundImageFix" result="effect1_dropShadow_530_20"/>
			<feBlend mode="normal" in="SourceGraphic" in2="effect1_dropShadow_530_20" result="shape"/>
		</filter>
	</defs>
</svg>
