<svg width="512" height="512" viewBox="0 0 512 512" fill="none" xmlns="http://www.w3.org/2000/svg">
	<path d="M16.2089 3.59795C22.1485 -2.0227 31.0579 0.787626 38.4594 0.168027C90.0512 0.12377 141.643 0.201219 193.235 0.145898C198.449 0.267605 204.458 -0.860951 208.717 2.83452C213.425 5.89932 214.587 12.8145 210.823 17.0079C207.347 21.6549 200.97 22.0974 195.537 22.4957C193.407 26.9325 190.495 31.3582 185.891 33.726C181.448 35.275 176.613 34.755 171.974 34.8767C138.57 34.766 105.165 34.7881 71.7604 34.8767C62.5402 34.6554 53.3085 35.0537 44.0883 34.6886C39.3803 34.6554 35.858 31.2365 33.2795 27.8176C32.2551 26.0916 31.3803 24.2881 30.4709 22.4957C25.5327 22.2302 20.0536 21.8872 16.301 18.3798C11.8463 14.6954 11.6276 7.26023 16.2089 3.59795Z" fill="white"/>
	<path d="M307.386 1.36341C366.794 1.00935 426.224 1.36341 485.643 1.19744C492.446 0.954028 498.8 6.59681 498.535 13.2907C497.511 16.1121 496.187 19.1437 493.402 20.748C489.707 23.16 485.068 22.9609 480.889 23.9014C477.977 29.1901 474.132 35.3197 467.226 35.8729C432.428 36.2602 397.62 35.7291 362.822 36.1495C351.737 35.6738 340.618 36.3155 329.533 35.8618C324.79 35.8287 321.141 32.5315 318.574 29.0131C317.527 27.2538 316.595 25.4282 315.639 23.6137C309.343 23.6911 302.482 22.0647 298.925 16.5989C298.2 13.4677 297.579 9.86078 299.57 7.02832C301.446 4.40609 304.347 2.54729 307.386 1.36341Z" fill="white"/>
	<path d="M63.7697 173.977C63.9654 128.403 63.7467 82.8295 63.8503 37.2557C72.9784 37.1894 82.1066 37.2889 91.2462 37.2115C90.7973 45.8084 91.1196 54.4164 91.016 63.0134C91.0965 131.435 90.7973 199.867 91.0965 268.289C91.016 336.633 91.0045 404.988 91.016 473.332L90.1757 473.454C81.3699 473.288 72.564 473.41 63.7467 473.321C64.0115 373.543 63.8043 273.755 63.7697 173.977Z" fill="white"/>
	<path d="M94.8503 37.1889C106.983 37.2885 119.104 37.2996 131.236 37.1889C131.328 93.1631 131.029 149.126 131.317 205.089C131.167 262.524 131.213 319.97 131.236 377.405C131.236 409.369 131.225 441.345 131.202 473.31C119.184 473.387 107.178 473.42 95.1611 473.288C95.1381 381.786 95.092 290.295 95.0805 198.794C95.2992 151.317 95.0805 103.829 95.1381 56.3523C95.046 49.9682 95.3683 43.562 94.8503 37.1889Z" fill="white"/>
	<path d="M136.161 37.1889C144.725 37.3106 153.29 37.2332 161.842 37.2553C161.957 77.7506 161.658 118.246 161.98 158.741C161.692 178.015 161.923 197.3 161.854 216.574V217.625C224.346 217.559 286.85 217.747 349.354 217.592C349.078 189.179 349.469 160.755 349.112 132.331C349.481 105.909 349.147 79.4766 349.262 53.0551C349.377 48.22 348.836 43.3517 349.584 38.5498C358.54 38.0962 367.518 38.7711 376.485 38.24C376.197 67.1621 376.807 96.0952 376.048 125.006C377.245 149.115 375.184 173.258 376.462 197.356C376.416 251.703 376.37 306.062 376.439 360.41C376.416 389.985 376.439 419.56 376.359 449.135C375.841 457.731 376.969 466.351 375.91 474.925C367.046 474.726 358.171 474.593 349.308 474.97C349.158 451.104 349.354 427.227 349.17 403.362C349.377 359.89 349.204 316.418 349.239 272.947L349.227 271.652C286.781 271.697 224.323 271.697 161.865 271.697C161.934 331.765 161.681 391.855 161.969 451.923C161.715 459.07 161.9 466.218 161.842 473.365C153.29 473.365 144.725 473.365 136.173 473.354C136.104 447.077 136.334 420.788 136.035 394.521C136.369 343.028 136.069 291.535 136.161 240.042C136.081 229.951 136.323 219.86 136.023 209.781C136.415 152.258 136.035 94.7232 136.161 37.1889Z" fill="white"/>
	<path d="M380.458 38.7381C392.522 37.9415 404.643 38.6496 416.729 38.3619C416.741 47.2908 415.958 56.2307 416.614 65.1485C416.119 157.9 416.257 250.73 416.361 343.515C416.2 387.252 416.384 430.989 416.246 474.726C404.493 474.881 392.729 474.56 380.988 474.925C380.24 468.198 380.654 461.427 380.574 454.678C380.493 421.319 380.643 387.949 380.458 354.579C380.735 305.531 380.412 256.483 380.574 207.446C380.539 151.207 380.643 94.9778 380.458 38.7381Z" fill="white"/>
	<path d="M421.495 38.3731C430.059 38.4285 438.623 38.351 447.187 38.4395C447.267 98.4743 446.98 158.509 447.302 218.544C447.095 259.836 447.06 301.139 447.29 342.431C447.014 376.896 447.244 411.35 447.164 445.816C447.256 455.475 446.945 465.134 447.325 474.793C438.807 474.749 430.289 474.793 421.771 474.76C421.702 474.561 421.575 474.162 421.518 473.963C421.587 328.766 421.472 183.57 421.495 38.3731Z" fill="white"/>
	<path d="M44.2365 475.888C83.5462 475.999 122.856 475.911 162.165 475.944C169.947 475.977 177.74 475.723 185.498 476.353C189.815 479.518 193.613 483.412 195.651 488.336C200.151 488.491 205.078 488.767 208.727 491.633C211.213 493.724 213.389 496.745 213.055 500.075C213.02 505.242 208.209 509.07 203.432 510.475C199.668 510.951 195.846 510.652 192.071 510.697C144.404 510.652 96.7492 510.741 49.0941 510.675C41.0941 510.641 33.1055 510.741 25.117 510.697C17.5774 510.852 10.2449 503.062 13.6637 495.882C16.3917 489.73 24.035 488.126 30.3199 488.325C32.9674 482.682 37.1228 476.408 44.2365 475.888Z" fill="white"/>
	<path d="M328.728 477.039C374.138 477.094 419.548 477.017 464.97 477.094C472.763 476.597 478.196 483.191 480.821 489.486C484.907 489.608 489.201 489.874 492.781 492.009C495.255 493.315 496.614 495.793 498.248 497.895C498.03 500.883 498.525 504.29 496.383 506.78C494.392 509.115 491.618 510.818 488.637 511.726C484.942 512.213 481.212 511.892 477.506 511.947C431.577 511.936 385.637 511.936 339.709 511.958C328.958 511.814 318.195 512.179 307.444 511.77C304.532 510.354 301.493 508.772 299.628 506.105C297.867 503.748 298.454 500.706 298.247 498.006C299.237 496.546 300.169 495.063 301.171 493.613C305.268 490.538 310.402 489.243 315.559 489.498C318.218 484.032 322.086 478.312 328.728 477.039Z" fill="white"/>
</svg>
